<?xml version="1.0" encoding="UTF-8" standalone="no"?>
<!-- Created with Inkscape (http://www.inkscape.org/) -->

<svg
   xmlns:dc="http://purl.org/dc/elements/1.1/"
   xmlns:cc="http://creativecommons.org/ns#"
   xmlns:rdf="http://www.w3.org/1999/02/22-rdf-syntax-ns#"
   xmlns:svg="http://www.w3.org/2000/svg"
   xmlns="http://www.w3.org/2000/svg"
   xmlns:sodipodi="http://sodipodi.sourceforge.net/DTD/sodipodi-0.dtd"
   xmlns:inkscape="http://www.inkscape.org/namespaces/inkscape"
   id="svg4155"
   version="1.1"
   inkscape:version="0.91 r13725"
   xml:space="preserve"
   width="2649.9624"
   height="140.16251"
   viewBox="0 0 2649.9624 140.16251"
   sodipodi:docname="kth-one-color-plane.svg"><metadata
     id="metadata4161"><rdf:RDF><cc:Work
         rdf:about=""><dc:format>image/svg+xml</dc:format><dc:type
           rdf:resource="http://purl.org/dc/dcmitype/StillImage" /><dc:title></dc:title></cc:Work></rdf:RDF></metadata><defs
     id="defs4159" /><sodipodi:namedview
     pagecolor="#ffffff"
     bordercolor="#666666"
     borderopacity="1"
     objecttolerance="10"
     gridtolerance="10"
     guidetolerance="10"
     inkscape:pageopacity="0"
     inkscape:pageshadow="2"
     inkscape:window-width="1920"
     inkscape:window-height="1032"
     id="namedview4157"
     showgrid="false"
     inkscape:zoom="0.50566755"
     inkscape:cx="1324.9812"
     inkscape:cy="70.081253"
     inkscape:window-x="0"
     inkscape:window-y="24"
     inkscape:window-maximized="0"
     inkscape:current-layer="g4163" /><g
     id="g4163"
     inkscape:groupmode="layer"
     inkscape:label="ink_ext_XXXXXX"
     transform="matrix(1.25,0,0,-1.25,0,140.1625)"><g
       id="g4165"
       transform="scale(0.1,0.1)"><g
         id="g4167"
         transform="scale(1.3006,1.3006)"><path
           d="m 16300,585.739 -3181.8,0 c -29.6,0 -53.7,24.183 -53.7,53.737 l 0,168.913 c 0,29.548 -24.2,53.74 -53.8,53.74 l -7416.16,0 c -29.56,0 -53.75,-24.192 -53.75,-53.74 l 0,-166.201 c 0,-29.554 -24.18,-53.74 -53.74,-53.74 l -3888.13,0 c -29.55,0 -53.75,24.186 -53.75,53.74 l 0,166.201 c 0,29.548 -24.18,53.74 -53.74,53.74 L 0,862.129 0,0 l 16300,0 0,585.739"
           style="fill:#2f59af;fill-opacity:1;fill-rule:nonzero;stroke:none"
           id="path4169"
           inkscape:connector-curvature="0" /></g></g></g></svg>