<?xml version="1.0" encoding="UTF-8" standalone="no"?>
<!-- Created with Inkscape (http://www.inkscape.org/) -->

<svg
   xmlns:dc="http://purl.org/dc/elements/1.1/"
   xmlns:cc="http://creativecommons.org/ns#"
   xmlns:rdf="http://www.w3.org/1999/02/22-rdf-syntax-ns#"
   xmlns:svg="http://www.w3.org/2000/svg"
   xmlns="http://www.w3.org/2000/svg"
   xmlns:sodipodi="http://sodipodi.sourceforge.net/DTD/sodipodi-0.dtd"
   xmlns:inkscape="http://www.inkscape.org/namespaces/inkscape"
   id="svg4209"
   version="1.1"
   inkscape:version="0.91 r13725"
   xml:space="preserve"
   width="2649.9624"
   height="318.625"
   viewBox="0 0 2649.9624 318.625"
   sodipodi:docname="kth-multi-color-lines.svg"><metadata
     id="metadata4215"><rdf:RDF><cc:Work
         rdf:about=""><dc:format>image/svg+xml</dc:format><dc:type
           rdf:resource="http://purl.org/dc/dcmitype/StillImage" /><dc:title></dc:title></cc:Work></rdf:RDF></metadata><defs
     id="defs4213" /><sodipodi:namedview
     pagecolor="#ffffff"
     bordercolor="#666666"
     borderopacity="1"
     objecttolerance="10"
     gridtolerance="10"
     guidetolerance="10"
     inkscape:pageopacity="0"
     inkscape:pageshadow="2"
     inkscape:window-width="959"
     inkscape:window-height="1032"
     id="namedview4211"
     showgrid="false"
     inkscape:zoom="0.12453007"
     inkscape:cx="-124.46793"
     inkscape:cy="159.3125"
     inkscape:window-x="960"
     inkscape:window-y="24"
     inkscape:window-maximized="0"
     inkscape:current-layer="g4217" /><g
     id="g4217"
     inkscape:groupmode="layer"
     inkscape:label="ink_ext_XXXXXX"
     transform="matrix(1.25,0,0,-1.25,0,318.625)"><g
       id="g4219"
       transform="scale(0.1,0.1)"><g
         id="g4221"
         transform="scale(1.30047,1.30047)"><path
           d="m 0,1270.57 1148.77,0 c 29.55,0 53.74,24.19 53.74,53.75 l 0,578.11 c 0,29.57 24.19,53.75 53.75,53.75 l 578.1,0 c 29.56,0 53.75,-24.18 53.75,-53.75 l 0,-920.909 c 0,-29.559 24.19,-53.751 53.75,-53.751 l 1029.73,0 c 29.57,0 53.76,24.192 53.76,53.751 l 0,344.139 c 0,29.55 24.17,53.73 53.73,53.73 l 1720.77,0 c 29.55,0 53.75,-24.18 53.75,-53.73 l 0,-344.139 c 0,-29.559 24.19,-53.751 53.75,-53.751 l 469.28,0 c 29.56,0 53.76,24.192 53.76,53.751 l 0,235.299 c 0,29.57 24.19,53.75 53.73,53.75 l 578.11,0 c 29.56,0 53.74,-24.18 53.74,-53.75 l 0,-126.48 c 0,-29.56 24.19,-53.75 53.77,-53.75 l 3999.36,0 c 29.5,0 53.7,24.19 53.7,53.75 l 0,812.09 c 0,29.57 24.2,53.75 53.8,53.75 l 1318.4,0 c 29.5,0 53.8,-24.18 53.8,-53.75 l 0,-683.24 c 0,-29.56 24.1,-53.75 53.7,-53.75 l 2004.1,0 c 29.5,0 53.7,24.19 53.7,53.75 l 0,523.22 c 0,29.55 24.2,53.75 53.7,53.75 l 2486,0"
           style="fill:none;stroke:#9ad12d;stroke-width:7.68950987;stroke-linecap:butt;stroke-linejoin:miter;stroke-miterlimit:10;stroke-dasharray:none;stroke-opacity:1"
           id="path4223"
           inkscape:connector-curvature="0" /></g><g
         id="g4225"
         transform="scale(1.3006,1.3006)"><path
           d="m 0,350.963 1491.43,0 c 29.55,0 53.73,-24.18 53.73,-53.731 l 0,-166.198 c 0,-29.551 24.19,-53.7467 53.75,-53.7467 l 3888.13,0 c 29.56,0 53.75,24.1957 53.75,53.7467 l 0,166.198 c 0,29.551 24.18,53.731 53.73,53.731 l 7413.88,0 c 29.6,0 53.8,-24.18 53.8,-53.731 l 0,-168.913 c 0,-29.5571 24.1,-53.7468 53.7,-53.7468 l 3184.1,0"
           style="fill:none;stroke:#eb2d43;stroke-width:7.68878984;stroke-linecap:butt;stroke-linejoin:miter;stroke-miterlimit:10;stroke-dasharray:none;stroke-opacity:1"
           id="path4227"
           inkscape:connector-curvature="0" /></g><g
         id="g4229"
         transform="scale(1.30053,1.30053)"><path
           d="m 0,1613.29 2519.85,0 c 29.56,0 53.75,-24.18 53.75,-53.73 l 0,-1154.819 c 0,-29.556 24.18,-53.746 53.74,-53.746 l 2399.71,0 c 29.55,0 53.75,24.19 53.75,53.746 l 0,920.849 c 0,29.56 24.17,53.74 53.73,53.74 l 2420.43,0 c 29.57,0 53.77,-24.18 53.77,-53.74 l 0,-1263.6473 c 0,-29.5552 24.17,-53.74595 53.73,-53.74595 l 1671.4,0 c 29.6,0 53.75,24.19075 53.75,53.74595 l 0,1497.6173 c 0,29.55 24.22,53.73 53.74,53.73 l 1201.55,0 c 29.6,0 53.8,-24.18 53.8,-53.73 l 0,-1322.596 c 0,-29.558 24.2,-53.731 53.7,-53.731 l 2434.5,0 c 29.5,0 53.7,24.173 53.7,53.731 l 0,1092.716 c 0,29.54 24.2,53.75 53.8,53.75 l 811,0 c 29.6,0 53.8,-24.21 53.8,-53.75 l 0,-233.95 c 0,-29.55 24.2,-53.75 53.8,-53.75 l 2089,0"
           style="fill:none;stroke:#f9b01e;stroke-width:7.68914986;stroke-linecap:butt;stroke-linejoin:miter;stroke-miterlimit:10;stroke-dasharray:none;stroke-opacity:1"
           id="path4231"
           inkscape:connector-curvature="0" /></g><g
         id="g4233"
         transform="scale(1.30053,1.30053)"><path
           d="m 0,1379.33 805.922,0 c 29.564,0 53.755,-24.18 53.755,-53.74 l 0,-578.081 c 0,-29.565 24.182,-53.746 53.74,-53.746 l 2400.813,0 c 29.56,0 53.76,24.181 53.76,53.746 l 0,812.051 c 0,29.55 24.17,53.75 53.73,53.75 l 1720.7,0 c 29.55,0 53.73,-24.2 53.73,-53.75 l 0,-812.051 c 0,-29.565 24.19,-53.746 53.75,-53.746 l 2877.46,0 c 29.52,0 53.74,24.181 53.74,53.746 l 0,469.251 c 0,29.56 24.22,53.75 53.75,53.75 l 3044.25,0 c 29.6,0 53.8,-24.19 53.8,-53.75 l 0,-182.8 c 0,-29.56 24.1,-53.732 53.7,-53.732 l 1099,0 c 29.6,0 53.8,24.172 53.8,53.732 l 0,540.96 c 0,29.54 24.2,53.74 53.7,53.74 l 1908,0 c 29.5,0 53.8,-24.2 53.8,-53.74 l 0,-1013.903 c 0,-29.55 24.1,-53.734 53.7,-53.734 l 1691.4,0"
           style="fill:none;stroke:#d739a2;stroke-width:7.68914986;stroke-linecap:butt;stroke-linejoin:miter;stroke-miterlimit:10;stroke-dasharray:none;stroke-opacity:1"
           id="path4235"
           inkscape:connector-curvature="0" /></g><g
         id="g4237"
         transform="scale(1.30047,1.30047)"><path
           d="m 0,238.33 2177.17,0 c 29.56,0 53.75,24.189 53.75,53.748 l 0,924.752 c 0,29.56 24.19,53.74 53.73,53.74 l 1949.31,0 c 29.57,0 53.75,-24.18 53.75,-53.74 l 0,-925.274 c 0,-29.56 24.18,-53.743 53.74,-53.743 l 2749.17,0 c 29.55,0 53.75,24.183 53.75,53.743 l 0,1376.884 c 0,29.56 24.19,53.75 53.74,53.75 l 2477.37,0 c 29.53,0 53.76,-24.19 53.76,-53.75 l 0,-936.561 c 0,-29.556 24.14,-53.748 53.74,-53.748 l 687.72,0 c 29.6,0 53.8,24.192 53.8,53.748 l 0,597.861 c 0,29.54 24.1,53.74 53.7,53.74 l 1524.1,0 c 29.6,0 53.7,-24.2 53.7,-53.74 l 0,-1272.1467 c 0,-29.5566 24.3,-53.74854 53.8,-53.74854 l 1702.4,0 c 29.6,0 53.7,24.19194 53.7,53.74854 l 0,582.4507 c 0,29.574 24.2,53.751 53.8,53.751 l 2280.3,0"
           style="fill:none;stroke:#49a3dd;stroke-width:7.68950987;stroke-linecap:butt;stroke-linejoin:miter;stroke-miterlimit:10;stroke-dasharray:none;stroke-opacity:1"
           id="path4239"
           inkscape:connector-curvature="0" /></g></g></g></svg>