<?xml version="1.0" encoding="UTF-8" standalone="no"?>
<svg
   xmlns:dc="http://purl.org/dc/elements/1.1/"
   xmlns:cc="http://creativecommons.org/ns#"
   xmlns:rdf="http://www.w3.org/1999/02/22-rdf-syntax-ns#"
   xmlns:svg="http://www.w3.org/2000/svg"
   xmlns="http://www.w3.org/2000/svg"
   viewBox="0 0 2649.9624 318.625"
   height="318.625"
   width="2649.9624"
   xml:space="preserve"
   version="1.1"
   id="svg4155"><metadata
     id="metadata4161"><rdf:RDF><cc:Work
         rdf:about=""><dc:format>image/svg+xml</dc:format><dc:type
           rdf:resource="http://purl.org/dc/dcmitype/StillImage" /><dc:title></dc:title></cc:Work></rdf:RDF></metadata><defs
     id="defs4159" /><g
     transform="matrix(1.25,0,0,-1.25,0,318.625)"
     id="g4163"><g
       transform="scale(0.1,0.1)"
       id="g4165"><g
         transform="scale(1.3006,1.3006)"
         id="g4167"><path
           id="path4169"
           style="fill:none;stroke:#2f59af;stroke-width:7.68878984;stroke-linecap:butt;stroke-linejoin:miter;stroke-miterlimit:10;stroke-dasharray:none;stroke-opacity:1"
           d="m 0,1270.45 1148.67,0 c 29.54,0 53.72,24.19 53.72,53.75 l 0,578.05 c 0,29.57 24.19,53.75 53.75,53.75 l 578.05,0 c 29.56,0 53.74,-24.18 53.74,-53.75 l 0,-920.821 c 0,-29.557 24.19,-53.747 53.74,-53.747 l 1029.64,0 c 29.57,0 53.75,24.19 53.75,53.747 l 0,344.101 c 0,29.56 24.18,53.73 53.73,53.73 l 1720.61,0 c 29.54,0 53.74,-24.17 53.74,-53.73 l 0,-344.101 c 0,-29.557 24.19,-53.747 53.75,-53.747 l 469.23,0 c 29.56,0 53.76,24.19 53.76,53.747 l 0,235.271 c 0,29.57 24.19,53.75 53.72,53.75 l 578.06,0 c 29.55,0 53.73,-24.18 53.73,-53.75 l 0,-126.46 c 0,-29.56 24.19,-53.75 53.76,-53.75 l 3998.95,0 c 29.5,0 53.8,24.19 53.8,53.75 l 0,812.01 c 0,29.57 24.1,53.75 53.7,53.75 l 1318.3,0 c 29.6,0 53.8,-24.18 53.8,-53.75 l 0,-683.17 c 0,-29.56 24.1,-53.75 53.7,-53.75 l 2003.9,0 c 29.5,0 53.7,24.19 53.7,53.75 l 0,523.16 c 0,29.56 24.2,53.75 53.7,53.75 l 2487.3,0" /></g><g
         transform="scale(1.3006,1.3006)"
         id="g4171"><path
           id="path4173"
           style="fill:none;stroke:#2f59af;stroke-width:7.68878984;stroke-linecap:butt;stroke-linejoin:miter;stroke-miterlimit:10;stroke-dasharray:none;stroke-opacity:1"
           d="m 0,350.963 1491.43,0 c 29.55,0 53.73,-24.18 53.73,-53.731 l 0,-166.198 c 0,-29.551 24.19,-53.7467 53.75,-53.7467 l 3888.13,0 c 29.56,0 53.75,24.1957 53.75,53.7467 l 0,166.198 c 0,29.551 24.18,53.731 53.73,53.731 l 7413.88,0 c 29.6,0 53.8,-24.18 53.8,-53.731 l 0,-168.913 c 0,-29.5571 24.1,-53.7468 53.7,-53.7468 l 3184.1,0" /></g><g
         transform="scale(1.3006,1.3006)"
         id="g4175"><path
           id="path4177"
           style="fill:none;stroke:#2f59af;stroke-width:7.68878984;stroke-linecap:butt;stroke-linejoin:miter;stroke-miterlimit:10;stroke-dasharray:none;stroke-opacity:1"
           d="m 0,1613.22 2519.73,0 c 29.56,0 53.75,-24.18 53.75,-53.74 l 0,-1154.758 c 0,-29.554 24.18,-53.744 53.74,-53.744 l 2399.6,0 c 29.54,0 53.74,24.19 53.74,53.744 l 0,920.808 c 0,29.56 24.17,53.73 53.73,53.73 l 2420.31,0 c 29.58,0 53.77,-24.17 53.77,-53.73 l 0,-1263.5902 c 0,-29.5538 24.18,-53.74343 53.73,-53.74343 l 1671.32,0 c 29.6,0 53.75,24.18963 53.75,53.74343 l 0,1497.5402 c 0,29.56 24.22,53.74 53.74,53.74 l 1201.49,0 c 29.6,0 53.8,-24.18 53.8,-53.74 l 0,-1322.527 c 0,-29.557 24.2,-53.729 53.7,-53.729 l 2434.4,0 c 29.5,0 53.7,24.172 53.7,53.729 l 0,1092.667 c 0,29.54 24.2,53.74 53.8,53.74 l 811,0 c 29.6,0 53.7,-24.2 53.7,-53.74 l 0,-233.94 c 0,-29.55 24.2,-53.75 53.8,-53.75 l 2089.7,0" /></g><g
         transform="scale(1.3006,1.3006)"
         id="g4179"><path
           id="path4181"
           style="fill:none;stroke:#2f59af;stroke-width:7.68878984;stroke-linecap:butt;stroke-linejoin:miter;stroke-miterlimit:10;stroke-dasharray:none;stroke-opacity:1"
           d="m 0,1379.26 805.884,0 c 29.563,0 53.753,-24.17 53.753,-53.73 l 0,-578.057 c 0,-29.562 24.18,-53.743 53.737,-53.743 l 2400.706,0 c 29.55,0 53.75,24.181 53.75,53.743 l 0,812.007 c 0,29.56 24.17,53.75 53.73,53.75 l 1720.62,0 c 29.55,0 53.73,-24.19 53.73,-53.75 l 0,-812.007 c 0,-29.562 24.19,-53.743 53.74,-53.743 l 2877.32,0 c 29.53,0 53.75,24.181 53.75,53.743 l 0,469.227 c 0,29.56 24.22,53.75 53.74,53.75 l 3044.14,0 c 29.5,0 53.8,-24.19 53.8,-53.75 l 0,-182.79 c 0,-29.55 24.1,-53.728 53.7,-53.728 l 1099,0 c 29.6,0 53.7,24.178 53.7,53.728 l 0,540.94 c 0,29.54 24.2,53.73 53.7,53.73 l 1907.9,0 c 29.6,0 53.8,-24.19 53.8,-53.73 l 0,-1013.86 c 0,-29.548 24.1,-53.731 53.7,-53.731 l 1692.1,0" /></g><g
         transform="scale(1.3006,1.3006)"
         id="g4183"><path
           id="path4185"
           style="fill:none;stroke:#2f59af;stroke-width:7.68878984;stroke-linecap:butt;stroke-linejoin:miter;stroke-miterlimit:10;stroke-dasharray:none;stroke-opacity:1"
           d="m 0,238.307 2176.97,0 c 29.55,0 53.74,24.187 53.74,53.744 l 0,924.669 c 0,29.55 24.19,53.73 53.73,53.73 l 1949.12,0 c 29.57,0 53.75,-24.18 53.75,-53.73 l 0,-925.192 c 0,-29.557 24.18,-53.737 53.73,-53.737 l 2748.91,0 c 29.55,0 53.74,24.18 53.74,53.737 l 0,1376.752 c 0,29.56 24.19,53.75 53.75,53.75 l 2477.13,0 c 29.53,0 53.75,-24.19 53.75,-53.75 l 0,-936.47 c 0,-29.553 24.14,-53.743 53.74,-53.743 l 687.64,0 c 29.6,0 53.8,24.19 53.8,53.743 l 0,597.81 c 0,29.54 24.1,53.73 53.7,53.73 l 1524,0 c 29.6,0 53.7,-24.19 53.7,-53.73 l 0,-1272.0322 c 0,-29.5538 24.2,-53.74341 53.7,-53.74341 l 1702.3,0 c 29.6,0 53.7,24.18961 53.7,53.74341 l 0,582.3962 c 0,29.571 24.2,53.746 53.8,53.746 l 2281.6,0" /></g></g></g></svg>